<svg width="437" height="148" viewBox="0 0 437 148" fill="none" xmlns="http://www.w3.org/2000/svg">
<g clip-path="url(#clip0_18_2)">
<path d="M290.2 0.199951L243.4 75L289.5 148.2H243L220.3 112.6L198 148.2H150.4L196.2 74.8L148.7 0.199951H196.2L219.5 37.2L242.6 0.199951H290.2Z" fill="white"/>
<path d="M290.1 0.199951L243.3 75L289.4 148.2H242.9L220.3 112.5L197.9 148.2H150.4L196.2 74.8L148.6 0.199951H196.1L219.4 37.2L242.5 0.199951H290.1Z" fill="#A21D21"/>
<path d="M64.5 148.2C55.2 148.2 46.6 147 38.7 144.6C30.8 142.2 24 138.4 18.3 133.1C12.6 127.8 8.09999 121 4.89999 112.7C1.69999 104.4 0 94.4 0 82.7V0.400024H41.8V83.8C41.8 93 43.7 100.1 47.4 105.3C51.1 110.5 57 113.1 65 113.1C73 113.1 87.8 113.1 87.8 113.1V0.400024H129.6V148.2C129.8 148.2 73.8 148.2 64.5 148.2Z" fill="#E02633"/>
<path d="M242.8 0.199951H290.3L150.5 148.2L242.8 0.199951Z" fill="#97101B"/>
<path d="M289.6 148.2L148.8 0.199951H196.4L289.6 148.2Z" fill="#A21D21"/>
<path d="M219.8 74.9L290.3 0.199951L234.3 90.0999L289.6 148.2H243.1L220.3 112.5L198.1 148.2H150.5L205.8 89.7L148.8 0.199951L219.8 74.9Z" fill="white"/>
<path d="M198.1 148.2H150.5L290.3 0.199951L198.1 148.2Z" fill="#BC1C29"/>
<path d="M242.9 148.2L205.9 89.9L148.7 0L289.6 148.2H242.9Z" fill="#E02633"/>
<path d="M393.3 56.5C392.1 51.6 390.2 47.6 387.5 44.5C384.8 41.4 381.3 39.1 376.9 37.6C372.5 36.1 367.2 35.4 360.9 35.4H350.8V113.1H359.7C366 113.1 371.5 112.4 376 111.1C380.5 109.8 384.2 107.6 387.1 104.6C390 101.6 392.1 97.6 393.3 92.6C394.6 87.6 395.2 81.4 395.2 74.1C395.1 67.3 394.5 61.5 393.3 56.5ZM432 108.6C428.6 118.1 423.6 125.8 416.8 131.6C410 137.4 401.7 141.7 391.8 144.3C381.9 146.9 370.4 148.2 357.3 148.2H309.4V0.400024H361.1C372.6 0.400024 383.1 1.60002 392.6 4.00002C402 6.40002 410 10.4 416.6 16.1C423.1 21.8 428.2 29.3 431.8 38.6C435.4 47.9 437.2 59.5 437.2 73.4C437.2 87.3 435.4 99.1 432 108.6Z" fill="#E02633"/>
<path d="M219.6 37.3L233.9 59.9001L219.8 74.9001L205.6 59.9001L219.6 37.3Z" fill="#4C1211"/>
<path d="M220.3 112.5L234.3 90.1L219.8 74.9L205.8 89.7L220.3 112.5Z" fill="#8A181A"/>
</g>
<defs>
<clipPath id="clip0_18_2">
<rect width="437" height="148" fill="white"/>
</clipPath>
</defs>
</svg>
