<svg xmlns="http://www.w3.org/2000/svg" viewBox="0 0 360.46 128"><title>Logo-UXD_Line</title><path d="M108.39,128H55.84a74.65,74.65,0,0,1-21.93-3.1A45.35,45.35,0,0,1,16,114.67a47.77,47.77,0,0,1-11.76-18C1.41,89.34,0,80.66,0,70.85V3.77A3.77,3.77,0,0,1,3.77,0H37.51a3.77,3.77,0,0,1,3.78,3.77v68c0,6.58,1.29,11.74,3.83,15.35,2.26,3.2,5.89,4.76,11.12,4.76H70.87V3.77A3.77,3.77,0,0,1,74.65,0h33.74a3.77,3.77,0,0,1,3.77,3.77V124.23A3.77,3.77,0,0,1,108.39,128ZM7.55,7.55v63.3c0,8.88,1.24,16.66,3.71,23.1a40.21,40.21,0,0,0,9.87,15.22,37.37,37.37,0,0,0,15,8.51,67.18,67.18,0,0,0,19.72,2.77h48.77V7.55H78.42V95.62a3.77,3.77,0,0,1-3.77,3.78H56.24c-7.75,0-13.57-2.68-17.29-8-3.46-4.91-5.21-11.53-5.21-19.7V7.55ZM292.19,128H253.52a3.77,3.77,0,0,1-3.77-3.77V3.77A3.77,3.77,0,0,1,253.52,0h41.74a107.35,107.35,0,0,1,26.36,3.05,50.63,50.63,0,0,1,20.92,10.68,49.78,49.78,0,0,1,13.31,19.83c3.06,8,4.61,18,4.61,29.71S359,85,356.05,93.22c-3,8.43-7.49,15.28-13.37,20.34A54,54,0,0,1,321,124.7,113.65,113.65,0,0,1,292.19,128Zm-34.89-7.55h34.89a105.8,105.8,0,0,0,26.88-3,46.55,46.55,0,0,0,18.68-9.56c4.94-4.25,8.6-9.86,11.18-17.15h0c2.64-7.45,4-16.67,4-27.42s-1.38-19.9-4.11-27A42.29,42.29,0,0,0,337.55,19.4a43.06,43.06,0,0,0-17.81-9,99.89,99.89,0,0,0-24.48-2.81h-38Zm36.83-21h-7.19a3.77,3.77,0,0,1-3.77-3.78V32.3a3.77,3.77,0,0,1,3.77-3.78h8.16a43.51,43.51,0,0,1,14.14,2,23.3,23.3,0,0,1,10.19,6.73,26.55,26.55,0,0,1,5.49,11.35v0a70.13,70.13,0,0,1,1.64,15.16,65.16,65.16,0,0,1-1.65,16.07A24.42,24.42,0,0,1,319,91.3a23.53,23.53,0,0,1-10.63,6.31A50.83,50.83,0,0,1,294.13,99.4Zm-3.41-7.55h3.41a43.85,43.85,0,0,0,12.1-1.48,16.21,16.21,0,0,0,7.29-4.29,17.19,17.19,0,0,0,4.06-8A58.84,58.84,0,0,0,319,63.84a63.23,63.23,0,0,0-1.43-13.47,19.24,19.24,0,0,0-3.87-8.19,15.54,15.54,0,0,0-6.93-4.52,36.07,36.07,0,0,0-11.68-1.59h-4.38ZM204.46,64.1,240.28,7a4.58,4.58,0,0,0-3.88-7H200.53a4.55,4.55,0,0,0-3.88,2.14L181,27.06,165.27,2.15A4.57,4.57,0,0,0,161.38,0H125.51a4.58,4.58,0,0,0-3.88,7l35.81,57.25L121.64,121a4.59,4.59,0,0,0,3.88,7h36.29a4.57,4.57,0,0,0,3.89-2.15L181,101.5l15.26,24.35A4.54,4.54,0,0,0,200.1,128h36.3a4.57,4.57,0,0,0,3.87-7ZM202.2,7.55h27.66L191.08,49.86l-7.77-12.38,11.17-17.72ZM188.25,52.94l-6.77,7.39-7.54-8.09,7-11Zm-3.39,11,33.19-35.7-20,31.84a7.64,7.64,0,0,0-.8,1.75L191.48,71Zm-21-3.88-21-33.46,34.84,37.9L171,71.79l-6.46-10.28A7.4,7.4,0,0,0,163.83,60.06Zm4.33,14.8L140.9,104.6l22.92-36.29c0-.06.06-.13.1-.19ZM181,68.11l7.33,8-7.2,11.46-.15-.25-.12.18L173.63,76Zm13.34,6,3.6-5.73,18.31,29.19Zm-62,46.36,38.49-41.39,7.67,12.2-18.29,29.19Zm69.44,0L183.49,91.33,186.82,86l4.32-6.86,38,41.29Zm-23.21-83L171.1,49.2,132.22,7.55h27.52l11,17.48Z" fill="#fff"/></svg>