<?xml version="1.0" encoding="UTF-8"?>
<svg id="Illustration" xmlns="http://www.w3.org/2000/svg" xmlns:xlink="http://www.w3.org/1999/xlink" viewBox="0 0 108 108">
  <title>AI/ML server illustration - Red</title>
<desc>AI, ML, artificial intelligence, machine learning, server, app window, clouds, data</desc>
<metadata><?xpacket begin="﻿" id="W5M0MpCehiHzreSzNTczkc9d"?>
<x:xmpmeta xmlns:x="adobe:ns:meta/" x:xmptk="Adobe XMP Core 8.0-c001 1.000000, 0000/00/00-00:00:00        ">
   <rdf:RDF xmlns:rdf="http://www.w3.org/1999/02/22-rdf-syntax-ns#">
      <rdf:Description rdf:about=""
            xmlns:xmp="http://ns.adobe.com/xap/1.0/"
            xmlns:dc="http://purl.org/dc/elements/1.1/"
            xmlns:tiff="http://ns.adobe.com/tiff/1.0/">
         <xmp:brand-isolated-background>yes</xmp:brand-isolated-background>
         <xmp:rhcc-uploaded-by>alwilker@redhat.com</xmp:rhcc-uploaded-by>
         <xmp:rhcc-audience>rhcc-audience:internal</xmp:rhcc-audience>
         <xmp:rhcc-translation-id>TRA470dd2ce-6759-4a4b-963b-3d51a3b3688f</xmp:rhcc-translation-id>
         <xmp:rhcc-effective-on>2024-11-15T19:15:08.410Z</xmp:rhcc-effective-on>
         <xmp:rhcc-metadata-complete-uploader>pending</xmp:rhcc-metadata-complete-uploader>
         <xmp:rhcc-file-last-modified>2024-11-15T19:15:25.532Z</xmp:rhcc-file-last-modified>
         <xmp:rhcc-metadata-complete-moderator>pending</xmp:rhcc-metadata-complete-moderator>
         <xmp:brand-image-use-case>Full</xmp:brand-image-use-case>
         <xmp:brand-people>no</xmp:brand-people>
         <xmp:rhcc-rights-restricted>no</xmp:rhcc-rights-restricted>
         <xmp:rhcc-derivative-id>DER470dd2ce-6759-4a4b-963b-3d51a3b3688f</xmp:rhcc-derivative-id>
         <xmp:rhcc-notify-portal-subscribers-on-change>yes</xmp:rhcc-notify-portal-subscribers-on-change>
         <xmp:brand-content-subtype>Illustration</xmp:brand-content-subtype>
         <xmp:brand-content-type>Illustration</xmp:brand-content-type>
         <xmp:rhcc-aspect-ratio>square</xmp:rhcc-aspect-ratio>
         <xmp:rhcc-effective-on-set-on-upload>true</xmp:rhcc-effective-on-set-on-upload>
         <xmp:CreateDate>2024-11-15T19:15:08.410Z</xmp:CreateDate>
         <xmp:brand-colorway>
            <rdf:Bag>
               <rdf:li>colorway:pink</rdf:li>
               <rdf:li>colorway:red</rdf:li>
            </rdf:Bag>
         </xmp:brand-colorway>
         <dc:modified>2024-11-15T19:21:28.814Z</dc:modified>
         <dc:format>image/svg+xml</dc:format>
         <dc:title>
            <rdf:Alt>
               <rdf:li xml:lang="x-default">AI/ML server illustration - Red</rdf:li>
            </rdf:Alt>
         </dc:title>
         <dc:description>
            <rdf:Alt>
               <rdf:li xml:lang="x-default">AI, ML, artificial intelligence, machine learning, server, app window, clouds, data</rdf:li>
            </rdf:Alt>
         </dc:description>
         <tiff:ImageWidth>108</tiff:ImageWidth>
         <tiff:ImageLength>108</tiff:ImageLength>
      </rdf:Description>
   </rdf:RDF>
</x:xmpmeta>
                                                                                                    
                                                                                                    
                                                                                                    
                                                                                                    
                                                                                                    
                                                                                                    
                                                                                                    
                                                                                                    
                                                                                                    
                                                                                                    
                                                                                                    
                                                                                                    
                                                                                                    
                                                                                                    
                                                                                                    
                                                                        
<?xpacket end="w"?></metadata>
<defs>
    <style>
      .cls-1, .cls-2, .cls-3, .cls-4, .cls-5, .cls-6 {
        stroke: #e00;
      }

      .cls-1, .cls-3, .cls-5 {
        stroke-width: .2px;
      }

      .cls-1, .cls-7 {
        stroke-miterlimit: 10;
      }

      .cls-1, .cls-8 {
        fill: #e00;
      }

      .cls-9 {
        clip-path: url(#clippath);
      }

      .cls-10, .cls-2, .cls-11, .cls-7, .cls-4, .cls-5 {
        fill: none;
      }

      .cls-10, .cls-12, .cls-8, .cls-13, .cls-14 {
        stroke-width: 0px;
      }

      .cls-2, .cls-3, .cls-11, .cls-15, .cls-4, .cls-5, .cls-6 {
        stroke-linejoin: round;
      }

      .cls-2, .cls-15, .cls-7, .cls-4 {
        stroke-width: .4px;
      }

      .cls-3, .cls-11, .cls-15, .cls-7, .cls-4, .cls-5, .cls-6 {
        stroke-linecap: round;
      }

      .cls-3, .cls-15, .cls-14, .cls-6 {
        fill: #fff;
      }

      .cls-11 {
        stroke: #fff;
        stroke-width: .4px;
      }

      .cls-15 {
        stroke: #fce3e3;
      }

      .cls-7 {
        stroke: #f9a8a8;
      }

      .cls-12 {
        fill: #000;
      }

      .cls-13 {
        fill: #fce3e3;
      }

      .cls-6 {
        stroke-width: .3px;
      }
    </style>
    <clipPath id="clippath">
      <path class="cls-10" d="M104,25.4v31.53c0,8.6-6.51,12.9-18.23,17.2-11.71,4.3-24.21.41-31.23,8.6-5.83,6.81-10.36,7.26-18.18,7.26s-23.47-4.39-23.47-25.89S24.62,25.4,58.45,25.4h45.55Z"/>
    </clipPath>
  </defs>
  <g id="Red_10">
    <path id="Background" class="cls-13" d="M104,56.93c0-10.03-11.71-31.53-45.55-31.53S12.9,42.6,12.9,64.1s15.67,25.89,23.48,25.89,12.34-.45,18.17-7.26c7.01-8.19,19.52-4.3,31.23-8.6s18.22-8.6,18.22-17.2Z"/>
    <g id="Cloud">
      <path class="cls-14" d="M19,43.6c-2.02,0-3.67-1.65-3.67-3.67s1.58-3.61,3.55-3.67c.31-3.32,3.13-5.9,6.48-5.9,3.13,0,5.79,2.2,6.39,5.26,1.67.01,3.13,1.17,3.53,2.78,1.46.06,2.56,1.2,2.56,2.6s-1.17,2.6-2.6,2.6h-16.24Z"/>
      <path class="cls-13" d="M25.36,30.52c3.14,0,5.74,2.27,6.26,5.26.03,0,.06,0,.1,0,1.69,0,3.1,1.19,3.44,2.77.03,0,.05,0,.08,0,1.35,0,2.45,1.1,2.45,2.45s-1.1,2.45-2.45,2.45h-16.24c-1.94,0-3.52-1.58-3.52-3.52s1.58-3.52,3.52-3.52c0,0,.01,0,.02,0,.24-3.29,2.99-5.89,6.34-5.89M25.36,30.22c-3.38,0-6.24,2.57-6.62,5.9-2,.14-3.57,1.8-3.57,3.81s1.71,3.82,3.82,3.82h16.24c1.52,0,2.75-1.24,2.75-2.75s-1.15-2.67-2.6-2.75c-.45-1.57-1.88-2.71-3.53-2.77-.65-3.06-3.35-5.26-6.51-5.26h0Z"/>
    </g>
    <g id="Cloud-2" data-name="Cloud">
      <path class="cls-14" d="M51.26,36.45c-3.19,0-5.79-2.6-5.79-5.79,0-2.96,2.28-5.47,5.21-5.76,1.29-3.21,4.34-5.27,7.8-5.27,3.73,0,7.02,2.47,8.07,6.04.43-.1.87-.16,1.31-.16,3.02,0,5.47,2.45,5.47,5.47,0,2.85-2.21,5.23-5.05,5.45-.02.01-.04.02-.06.02h-16.58c-.11,0-.24.01-.37.01Z"/>
      <path class="cls-13" d="M58.48,19.78c3.8,0,7,2.57,7.96,6.07.45-.12.92-.19,1.41-.19,2.94,0,5.32,2.38,5.32,5.32s-2.19,5.12-4.96,5.3h0s-.36.01-.36.01h-16.23c-.12,0-.24.01-.37.01-3.12,0-5.64-2.53-5.64-5.64,0-2.96,2.27-5.38,5.17-5.62,1.2-3.08,4.19-5.26,7.7-5.26M58.48,19.48c-3.49,0-6.58,2.07-7.91,5.28-2.96.34-5.26,2.9-5.26,5.9,0,3.28,2.67,5.94,5.94,5.94.13,0,.26,0,.38-.01h6.83s9.37,0,9.37,0h.36s.08,0,.11-.02c2.9-.24,5.15-2.68,5.15-5.6,0-3.1-2.52-5.62-5.62-5.62-.4,0-.81.04-1.2.13-1.11-3.55-4.42-6.01-8.17-6.01h0Z"/>
    </g>
    <g id="Chip">
      <circle class="cls-8" cx="51.64" cy="33.4" r=".5"/>
      <circle class="cls-5" cx="49.45" cy="30.95" r=".66"/>
      <circle class="cls-8" cx="52.05" cy="28.41" r=".5"/>
      <circle class="cls-3" cx="48.36" cy="25.87" r=".66"/>
      <circle class="cls-8" cx="51.76" cy="23.55" r=".5"/>
      <circle class="cls-5" cx="59.18" cy="21.22" r=".66"/>
      <circle class="cls-5" cx="63.8" cy="25.88" r=".66"/>
      <circle class="cls-5" cx="59.16" cy="35.84" r=".66"/>
      <circle class="cls-8" cx="61.77" cy="33.56" r=".5"/>
      <circle class="cls-5" cx="64.9" cy="32.07" r=".66"/>
      <rect class="cls-1" x="53.48" y="25.27" width="6.29" height="6.29"/>
      <polyline class="cls-5" points="56.62 31.56 56.62 33.33 58.09 34.8"/>
      <polyline class="cls-5" points="55.09 31.56 55.09 33.46 57.59 35.96"/>
      <polyline class="cls-5" points="59.16 35.18 59.16 34.04 58.17 33.05 58.17 31.56"/>
      <line class="cls-5" x1="51.99" y1="33.05" x2="53.48" y2="31.56"/>
      <polyline class="cls-5" points="63.14 25.88 61.85 25.88 60.86 26.88 59.77 26.88"/>
      <circle class="cls-8" cx="60.96" cy="24.09" r=".5"/>
      <circle class="cls-8" cx="56.64" cy="23.82" r=".5"/>
      <circle class="cls-5" cx="54.09" cy="18.68" r=".66"/>
      <line class="cls-5" x1="52.11" y1="23.9" x2="53.48" y2="25.27"/>
      <polyline class="cls-5" points="59.18 21.88 59.18 23.17 58.18 24.16 58.18 25.27"/>
      <line class="cls-5" x1="52.54" y1="28.41" x2="53.48" y2="28.41"/>
      <circle class="cls-8" cx="67.56" cy="28.43" r=".5"/>
      <polyline class="cls-5" points="50.11 30.95 51.4 30.95 52.39 29.96 53.48 29.96"/>
      <polyline class="cls-5" points="49.02 25.87 50.88 25.87 51.87 26.86 53.48 26.86"/>
      <rect class="cls-14" x="55.52" y="27.31" width="2.21" height="2.21"/>
      <line class="cls-5" x1="59.77" y1="31.56" x2="61.42" y2="33.21"/>
      <polyline class="cls-5" points="64.24 32.07 62.95 32.07 61.09 30.21 59.77 30.21"/>
      <line class="cls-5" x1="67.06" y1="28.43" x2="59.77" y2="28.43"/>
      <line class="cls-5" x1="60.61" y1="24.44" x2="59.77" y2="25.27"/>
      <line class="cls-5" x1="56.64" y1="24.32" x2="56.64" y2="25.27"/>
      <polyline class="cls-5" points="54.09 19.34 54.09 23.17 55.09 24.16 55.09 25.27"/>
    </g>
    <g id="Server_and_linework" data-name="Server and linework">
      <g class="cls-9">
        <rect class="cls-12" x="57.18" y="34.88" width="28.44" height="49.26"/>
        <g>
          <path class="cls-2" d="M60.72,57.83h-7.51c-.42,0-.76-.34-.76-.76v-5.91c0-.42-.34-.76-.76-.76h-8.77"/>
          <line class="cls-2" x1="43.04" y1="47.85" x2="60.72" y2="47.85"/>
          <circle class="cls-2" cx="50.26" cy="41.51" r="1.02"/>
          <path class="cls-2" d="M34.07,45.56v-3.05c0-.55.45-1,1-1h14.17"/>
          <path class="cls-2" d="M25.29,38.53v1.44c0,.55-.45,1-1,1h-2.33c-.55,0-1,.45-1,1v3.58"/>
          <circle class="cls-2" cx="25.33" cy="37.55" r="1.02"/>
        </g>
        <g>
          <rect class="cls-15" x="59.2" y="30.99" width="44.4" height="12.07"/>
          <circle class="cls-8" cx="96.4" cy="37.02" r="1.42"/>
          <rect class="cls-15" x="59.2" y="43.06" width="44.4" height="12.07"/>
          <circle class="cls-8" cx="98.43" cy="49.1" r="1.58"/>
          <circle class="cls-8" cx="94.1" cy="49.1" r="1.58"/>
          <rect class="cls-15" x="59.2" y="55.13" width="44.4" height="12.07"/>
          <circle class="cls-8" cx="96.4" cy="61.17" r="1.58"/>
          <rect class="cls-15" x="59.2" y="67.21" width="44.4" height="12.07"/>
          <rect class="cls-15" x="59.2" y="79.28" width="44.4" height="12.07"/>
          <circle class="cls-8" cx="96.4" cy="73.24" r="1.58"/>
          <rect class="cls-8" x="66.21" y="35.87" width="24.17" height="2.3"/>
          <rect class="cls-8" x="62.96" y="45.97" width="2.23" height="6.37"/>
          <rect class="cls-8" x="66.31" y="45.97" width="2.23" height="6.37"/>
          <rect class="cls-8" x="66.36" y="60.03" width="23.87" height="2.27"/>
          <rect class="cls-8" x="66.36" y="72.11" width="23.87" height="2.27"/>
        </g>
      </g>
    </g>
    <g id="App_window_large" data-name="App window large">
      <rect class="cls-12" x="11.29" y="47.07" width="32.73" height="32.73" rx=".18" ry=".18"/>
      <rect class="cls-6" x="12.8" y="45.56" width="32.73" height="32.73"/>
      <rect class="cls-8" x="12.8" y="45.56" width="32.73" height="6.84"/>
      <circle class="cls-14" cx="39.59" cy="48.98" r=".79"/>
      <circle class="cls-14" cx="42.65" cy="48.98" r=".79"/>
      <line class="cls-11" x1="24.8" y1="49.13" x2="15.63" y2="49.13"/>
      <g>
        <line class="cls-7" x1="24.27" y1="56.61" x2="31.38" y2="56.61"/>
        <line class="cls-7" x1="15.58" y1="56.61" x2="22.69" y2="56.61"/>
        <line class="cls-7" x1="18.05" y1="59.76" x2="29.81" y2="59.76"/>
        <line class="cls-7" x1="40.08" y1="62.91" x2="27.55" y2="62.91"/>
        <line class="cls-7" x1="18.13" y1="62.91" x2="26.24" y2="62.91"/>
        <line class="cls-7" x1="31.31" y1="75.52" x2="24.2" y2="75.52"/>
        <line class="cls-7" x1="40" y1="75.52" x2="32.89" y2="75.52"/>
        <line class="cls-7" x1="18.05" y1="66.06" x2="25.69" y2="66.06"/>
        <line class="cls-7" x1="18.05" y1="72.37" x2="25.69" y2="72.37"/>
        <line class="cls-7" x1="34.05" y1="72.37" x2="27.27" y2="72.37"/>
        <line class="cls-7" x1="40" y1="72.37" x2="35.63" y2="72.37"/>
        <line class="cls-7" x1="28.87" y1="69.22" x2="22.77" y2="69.22"/>
      </g>
    </g>
    <g id="App_window_small" data-name="App window small">
      <rect class="cls-12" x="4" y="66.6" width="18.5" height="17.91" rx=".18" ry=".18"/>
      <path class="cls-3" d="M5.51,64.79h18.65v18.07c0,.08-.06.14-.14.14H5.51v-18.2h0Z"/>
      <rect class="cls-8" x="5.51" y="64.79" width="18.65" height="3.91"/>
      <line class="cls-11" x1="6.98" y1="66.75" x2="15.56" y2="66.75"/>
      <circle class="cls-14" cx="20.63" cy="66.75" r=".52"/>
      <circle class="cls-14" cx="22.19" cy="66.75" r=".52"/>
      <line class="cls-4" x1="6.98" y1="70.59" x2="17.48" y2="70.59"/>
      <line class="cls-4" x1="8.26" y1="74.45" x2="10.52" y2="74.45"/>
      <line class="cls-4" x1="11.71" y1="74.45" x2="16.1" y2="74.45"/>
      <line class="cls-4" x1="8.26" y1="76.37" x2="16.02" y2="76.37"/>
      <line class="cls-4" x1="17.21" y1="76.37" x2="20.05" y2="76.37"/>
      <line class="cls-4" x1="8.26" y1="72.52" x2="12.06" y2="72.52"/>
      <line class="cls-4" x1="8.26" y1="80.23" x2="15.5" y2="80.23"/>
      <line class="cls-4" x1="6.98" y1="78.3" x2="10.51" y2="78.3"/>
      <line class="cls-4" x1="11.71" y1="78.3" x2="17.69" y2="78.3"/>
    </g>
    <g id="Cloud-3" data-name="Cloud">
      <path class="cls-14" d="M31.86,84.8c-1.21,0-2.19-.98-2.19-2.19s.86-2.08,1.99-2.18c.08-1.75,1.52-3.14,3.29-3.14,1.28,0,2.44.74,2.98,1.9.16-.03.32-.04.48-.04,1.56,0,2.83,1.27,2.83,2.83s-1.27,2.83-2.83,2.83h-6.56Z"/>
      <path class="cls-13" d="M34.95,77.43c1.3,0,2.42.79,2.89,1.92.18-.04.38-.06.57-.06,1.48,0,2.68,1.2,2.68,2.68s-1.2,2.68-2.68,2.68h-6.56c-1.13,0-2.04-.91-2.04-2.04s.89-2.01,1.99-2.04c0-1.73,1.41-3.14,3.14-3.14M34.95,77.13c-1.8,0-3.29,1.39-3.43,3.16-1.14.16-2,1.13-2,2.31,0,1.29,1.05,2.34,2.34,2.34h6.56c1.64,0,2.98-1.34,2.98-2.98s-1.34-2.98-2.98-2.98c-.13,0-.26,0-.4.03-.58-1.15-1.76-1.88-3.07-1.88h0Z"/>
    </g>
  </g>
</svg>