<svg width="40" height="40" viewBox="0 0 40 40" fill="none" xmlns="http://www.w3.org/2000/svg">
<circle cx="20" cy="20" r="20" fill="#DBF2F2"/>
<path d="M21.28 16.0534C20.7822 15.5378 19.9822 16.3378 20.4978 16.8356L23.1644 19.5023C23.2682 19.606 23.4089 19.6643 23.5556 19.6643C23.7023 19.6643 23.8429 19.606 23.9467 19.5023C24.0504 19.3985 24.1087 19.2578 24.1087 19.1111C24.1087 18.9645 24.0504 18.8238 23.9467 18.72L21.28 16.0534Z" fill="#151515"/>
<path d="M32.0978 12.9336C32.106 12.7743 32.0518 12.618 31.9467 12.498L30.1689 10.7202C30.1183 10.6675 30.0576 10.6256 29.9904 10.597C29.9231 10.5683 29.8508 10.5536 29.7778 10.5536C29.7047 10.5536 29.6324 10.5683 29.5652 10.597C29.498 10.6256 29.4373 10.6675 29.3867 10.7202L24.4444 15.6625L20.1244 11.3336L23.4844 9.1558L24.9956 10.6669L23.1644 12.498C23.0607 12.6017 23.0024 12.7424 23.0024 12.8891C23.0024 13.0358 23.0607 13.1765 23.1644 13.2802C23.2682 13.384 23.4089 13.4422 23.5556 13.4422C23.7023 13.4422 23.8429 13.384 23.9467 13.2802L26.1689 11.058C26.2216 11.0074 26.2635 10.9467 26.2922 10.8795C26.3208 10.8123 26.3356 10.74 26.3356 10.6669C26.3356 10.5938 26.3208 10.5215 26.2922 10.4543C26.2635 10.3871 26.2216 10.3264 26.1689 10.2758L23.9467 8.05357C23.8606 7.97447 23.7528 7.9229 23.6372 7.90548C23.5216 7.88805 23.4034 7.90558 23.2978 7.9558C23.2533 7.9558 18.9867 10.7647 18.9422 10.7736C18.8241 10.8594 18.7422 10.9863 18.7126 11.1293C18.683 11.2723 18.7079 11.4212 18.7822 11.5469C18.7822 11.5469 19.3956 12.1869 19.4489 12.2314C18.6302 13.0277 18.0613 14.0454 17.8119 15.1599C17.5625 16.2745 17.6433 17.4376 18.0444 18.5069L8.49778 28.0536C8.04043 28.5109 7.78349 29.1312 7.78349 29.778C7.78349 30.4248 8.04043 31.0451 8.49778 31.5025C8.95513 31.9598 9.57543 32.2168 10.2222 32.2168C10.869 32.2168 11.4893 31.9598 11.9467 31.5025L21.4933 21.9558C22.3492 22.292 23.2747 22.4118 24.1879 22.3049C25.1012 22.1979 25.9739 21.8673 26.7289 21.3425L32.0178 13.1914C32.0617 13.1118 32.089 13.0241 32.0978 12.9336ZM21.5911 20.8002C21.487 20.7591 21.3734 20.7481 21.2634 20.7685C21.1533 20.789 21.0513 20.84 20.9689 20.9158L11.1911 30.6936C10.9384 30.9291 10.6041 31.0573 10.2586 31.0512C9.91321 31.0451 9.58363 30.9052 9.33934 30.6609C9.09505 30.4166 8.95512 30.087 8.94903 29.7416C8.94293 29.3962 9.07115 29.0619 9.30667 28.8091L19.0844 19.0314C19.1638 18.9479 19.2164 18.8427 19.2356 18.7291C19.2619 18.6241 19.2619 18.5142 19.2356 18.4091C18.8334 17.5126 18.7166 16.5141 18.9011 15.5489C19.0855 14.5838 19.5622 13.6987 20.2667 13.0136L24.0889 16.8358C24.1395 16.8885 24.2002 16.9304 24.2674 16.9591C24.3346 16.9877 24.4069 17.0025 24.48 17.0025C24.5531 17.0025 24.6254 16.9877 24.6926 16.9591C24.7598 16.9304 24.8205 16.8885 24.8711 16.8358L29.7778 11.8936L30.8444 12.9602L25.8756 20.6136C25.2243 20.9734 24.4986 21.1775 23.7553 21.2099C23.0119 21.2423 22.2712 21.1021 21.5911 20.8002Z" fill="#151515"/>
<path d="M10.2222 29.2271C10.1111 29.2254 10.002 29.2567 9.90872 29.3171C9.81547 29.3776 9.74231 29.4644 9.69856 29.5666C9.65481 29.6687 9.64244 29.7816 9.66303 29.8908C9.68363 30 9.73625 30.1006 9.8142 30.1799C9.89215 30.2591 9.99191 30.3133 10.1008 30.3356C10.2096 30.358 10.3227 30.3474 10.4255 30.3053C10.5284 30.2632 10.6164 30.1914 10.6783 30.0991C10.7402 30.0069 10.7733 29.8983 10.7733 29.7871C10.7734 29.6401 10.7156 29.499 10.6125 29.3943C10.5094 29.2895 10.3692 29.2295 10.2222 29.2271Z" fill="#151515"/>
</svg>
