<svg width="36" height="36" viewBox="0 0 36 36" fill="none" xmlns="http://www.w3.org/2000/svg">
<g clip-path="url(#clip0_747_3476)">
<path d="M21.4275 17.4C23.3025 16.245 24.5625 14.175 24.5625 11.8125C24.5625 8.19 21.6225 5.25 18 5.25C14.3775 5.25 11.4375 8.19 11.4375 11.8125C11.4375 14.175 12.6975 16.2375 14.5725 17.4C9.6225 18.93 6 23.6625 6 29.25C6 29.6625 6.3375 30 6.75 30H29.25C29.6625 30 30 29.6625 30 29.25C30 23.655 26.3775 18.9225 21.4275 17.4ZM12.9375 11.8125C12.9375 9.0225 15.21 6.75 18 6.75C20.79 6.75 23.0625 9.0225 23.0625 11.8125C23.0625 14.6025 20.79 16.875 18 16.875C15.21 16.875 12.9375 14.6025 12.9375 11.8125ZM7.5225 28.5C7.8975 22.8525 12.45 18.375 18 18.375C23.55 18.375 28.1025 22.8525 28.4775 28.5H7.5225Z" fill="black"/>
</g>
<defs>
<clipPath id="clip0_747_3476">
<rect width="36" height="36" rx="18" fill="white"/>
</clipPath>
</defs>
</svg>
