<svg width="36" height="36" viewBox="0 0 36 36" fill="none" xmlns="http://www.w3.org/2000/svg">
<path d="M18.62 8.99988C18.62 9.16432 18.5547 9.32202 18.4384 9.43829C18.3221 9.55456 18.1644 9.61988 18 9.61988C17.8356 9.61988 17.6779 9.55456 17.5616 9.43829C17.4453 9.32202 17.38 9.16432 17.38 8.99988C17.38 8.83545 17.4453 8.67775 17.5616 8.56148C17.6779 8.4452 17.8356 8.37988 18 8.37988C18.1644 8.37988 18.3221 8.4452 18.4384 8.56148C18.5547 8.67775 18.62 8.83545 18.62 8.99988Z" fill="black"/>
<path d="M5.99997 24.62H30C30.0818 24.6213 30.163 24.6062 30.2388 24.5755C30.3147 24.5448 30.3835 24.4992 30.4414 24.4414C30.4992 24.3835 30.5448 24.3147 30.5755 24.2388C30.6062 24.163 30.6213 24.0818 30.62 24V8.99997C30.6213 8.91817 30.6062 8.83694 30.5755 8.76111C30.5448 8.68528 30.4992 8.61639 30.4414 8.55855C30.3835 8.5007 30.3147 8.45509 30.2388 8.42441C30.163 8.39373 30.0818 8.37861 30 8.37997H21C20.8355 8.37997 20.6778 8.44529 20.5616 8.56156C20.4453 8.67783 20.38 8.83553 20.38 8.99997C20.38 9.1644 20.4453 9.3221 20.5616 9.43837C20.6778 9.55464 20.8355 9.61997 21 9.61997H29.38V23.38H6.61997V9.61997H15C15.1644 9.61997 15.3221 9.55464 15.4384 9.43837C15.5546 9.3221 15.62 9.1644 15.62 8.99997C15.62 8.83553 15.5546 8.67783 15.4384 8.56156C15.3221 8.44529 15.1644 8.37997 15 8.37997H5.99997C5.91817 8.37861 5.83694 8.39373 5.76111 8.42441C5.68528 8.45509 5.61639 8.5007 5.55855 8.55855C5.5007 8.61639 5.45509 8.68528 5.42441 8.76111C5.39373 8.83694 5.37861 8.91817 5.37997 8.99997V24C5.37861 24.0818 5.39373 24.163 5.42441 24.2388C5.45509 24.3147 5.5007 24.3835 5.55855 24.4414C5.61639 24.4992 5.68528 24.5448 5.76111 24.5755C5.83694 24.6062 5.91817 24.6213 5.99997 24.62Z" fill="black"/>
<path d="M32 26.3799H4C3.83557 26.3799 3.67787 26.4452 3.5616 26.5615C3.44533 26.6778 3.38 26.8354 3.38 26.9999C3.38 27.1643 3.44533 27.322 3.5616 27.4383C3.67787 27.5546 3.83557 27.6199 4 27.6199H32C32.1644 27.6199 32.3221 27.5546 32.4384 27.4383C32.5547 27.322 32.62 27.1643 32.62 26.9999C32.62 26.8354 32.5547 26.6778 32.4384 26.5615C32.3221 26.4452 32.1644 26.3799 32 26.3799Z" fill="black"/>
<path d="M17.2401 19.9999C17.4031 20.0324 17.5724 19.9991 17.711 19.9073C17.8496 19.8155 17.9463 19.6727 17.9801 19.5099L19.2201 13.6699C19.2531 13.507 19.2215 13.3377 19.1319 13.1977C19.0423 13.0577 18.9018 12.9581 18.7401 12.9199C18.577 12.8874 18.4077 12.9207 18.2691 13.0124C18.1305 13.1042 18.0338 13.2471 18.0001 13.4099L16.7601 19.2499C16.7244 19.413 16.7549 19.5836 16.8449 19.7242C16.9349 19.8648 17.077 19.964 17.2401 19.9999Z" fill="black"/>
<path d="M21 19.5C21.1177 19.6148 21.2756 19.6791 21.44 19.6791C21.6045 19.6791 21.7624 19.6148 21.88 19.5L24.44 16.94C24.5555 16.8206 24.6201 16.661 24.6201 16.495C24.6201 16.3289 24.5555 16.1693 24.44 16.05L21.88 13.49C21.31 12.91 20.41 13.81 21 14.37L23.12 16.49L21 18.61C20.9405 18.6678 20.8931 18.7369 20.8608 18.8134C20.8284 18.8898 20.8117 18.972 20.8117 19.055C20.8117 19.138 20.8284 19.2201 20.8608 19.2966C20.8931 19.373 20.9405 19.4422 21 19.5Z" fill="black"/>
<path d="M15 13.49C14.9431 13.4307 14.8748 13.3835 14.7992 13.3513C14.7236 13.3191 14.6422 13.3025 14.56 13.3025C14.4778 13.3025 14.3965 13.3191 14.3209 13.3513C14.2453 13.3835 14.177 13.4307 14.12 13.49L11.56 16.05C11.4446 16.1694 11.38 16.3289 11.38 16.495C11.38 16.6611 11.4446 16.8206 11.56 16.94L14.12 19.5C14.2417 19.5952 14.3941 19.6425 14.5483 19.6327C14.7025 19.6229 14.8477 19.5568 14.9564 19.4469C15.065 19.337 15.1295 19.1911 15.1375 19.0368C15.1456 18.8825 15.0966 18.7306 15 18.61L12.88 16.49L15 14.37C15.0593 14.3131 15.1065 14.2448 15.1387 14.1691C15.1709 14.0935 15.1875 14.0122 15.1875 13.93C15.1875 13.8478 15.1709 13.7665 15.1387 13.6909C15.1065 13.6152 15.0593 13.5469 15 13.49Z" fill="black"/>
</svg>
