<svg width="36" height="36" viewBox="0 0 36 36" fill="none" xmlns="http://www.w3.org/2000/svg">
<path d="M18.0001 7.3501C10.3501 7.3501 4.3501 10.7101 4.3501 15.0001V21.0001C4.3501 25.2901 10.3501 28.6501 18.0001 28.6501C25.6501 28.6501 31.6501 25.2901 31.6501 21.0001V15.0001C31.6501 10.7101 25.6501 7.3501 18.0001 7.3501ZM18.0001 8.6501C24.7001 8.6501 30.3501 11.5601 30.3501 15.0001C30.3501 18.4401 24.7001 21.3501 18.0001 21.3501C11.3001 21.3501 5.6501 18.4401 5.6501 15.0001C5.6501 11.5601 11.3001 8.6501 18.0001 8.6501ZM18.0001 27.3501C11.3001 27.3501 5.6501 24.4401 5.6501 21.0001V18.2901C7.8101 20.8901 12.4601 22.6501 18.0001 22.6501C23.5401 22.6501 28.1901 20.8901 30.3501 18.2901V21.0001C30.3501 24.4401 24.7001 27.3501 18.0001 27.3501Z" fill="black"/>
</svg>
