<svg width="36" height="36" viewBox="0 0 36 36" fill="none" xmlns="http://www.w3.org/2000/svg">
<path d="M27 23.6101C27.3424 23.6101 27.62 23.3325 27.62 22.9901C27.62 22.6477 27.3424 22.3701 27 22.3701C26.6576 22.3701 26.38 22.6477 26.38 22.9901C26.38 23.3325 26.6576 23.6101 27 23.6101Z" fill="black"/>
<path d="M31 17.38H4.99997C4.91817 17.3786 4.83694 17.3937 4.76111 17.4244C4.68528 17.4551 4.61639 17.5007 4.55855 17.5585C4.5007 17.6164 4.45509 17.6853 4.42441 17.7611C4.39373 17.8369 4.37861 17.9182 4.37997 18V28C4.37861 28.0818 4.39373 28.163 4.42441 28.2388C4.45509 28.3147 4.5007 28.3835 4.55855 28.4414C4.61639 28.4992 4.68528 28.5448 4.76111 28.5755C4.83694 28.6062 4.91817 28.6213 4.99997 28.62H31C31.0818 28.6213 31.163 28.6062 31.2388 28.5755C31.3147 28.5448 31.3835 28.4992 31.4414 28.4414C31.4992 28.3835 31.5448 28.3147 31.5755 28.2388C31.6062 28.163 31.6213 28.0818 31.62 28V18C31.6213 17.9182 31.6062 17.8369 31.5755 17.7611C31.5448 17.6853 31.4992 17.6164 31.4414 17.5585C31.3835 17.5007 31.3147 17.4551 31.2388 17.4244C31.163 17.3937 31.0818 17.3786 31 17.38ZM30.38 27.38H5.61997V18.62H30.38V27.38Z" fill="black"/>
<path d="M9 23.6199H15C15.1644 23.6199 15.3221 23.5546 15.4384 23.4383C15.5547 23.322 15.62 23.1643 15.62 22.9999C15.62 22.8354 15.5547 22.6778 15.4384 22.5615C15.3221 22.4452 15.1644 22.3799 15 22.3799H9C8.83557 22.3799 8.67787 22.4452 8.5616 22.5615C8.44533 22.6778 8.38 22.8354 8.38 22.9999C8.38 23.1643 8.44533 23.322 8.5616 23.4383C8.67787 23.5546 8.83557 23.6199 9 23.6199Z" fill="black"/>
<path d="M24 10.3799H16.54C16.3883 9.75729 16.0138 9.21185 15.4872 8.84675C14.9606 8.48165 14.3184 8.3222 13.6822 8.39856C13.0459 8.47492 12.4597 8.78181 12.0345 9.26116C11.6092 9.74051 11.3744 10.3591 11.3744 10.9999C11.3744 11.6407 11.6092 12.2593 12.0345 12.7386C12.4597 13.218 13.0459 13.5249 13.6822 13.6012C14.3184 13.6776 14.9606 13.5181 15.4872 13.153C16.0138 12.7879 16.3883 12.2425 16.54 11.6199H19.38V12.9999C19.38 13.1643 19.4453 13.322 19.5616 13.4383C19.6778 13.5546 19.8355 13.6199 20 13.6199C20.1644 13.6199 20.3221 13.5546 20.4384 13.4383C20.5547 13.322 20.62 13.1643 20.62 12.9999V11.6199H21.38V12.9999C21.38 13.1643 21.4453 13.322 21.5616 13.4383C21.6778 13.5546 21.8355 13.6199 22 13.6199C22.1644 13.6199 22.3221 13.5546 22.4384 13.4383C22.5547 13.322 22.62 13.1643 22.62 12.9999V11.6199H23.38V11.9999C23.38 12.1643 23.4453 12.322 23.5616 12.4383C23.6778 12.5546 23.8355 12.6199 24 12.6199C24.1644 12.6199 24.3221 12.5546 24.4384 12.4383C24.5547 12.322 24.62 12.1643 24.62 11.9999V10.9999C24.6213 10.9181 24.6062 10.8369 24.5755 10.761C24.5449 10.6852 24.4992 10.6163 24.4414 10.5585C24.3835 10.5006 24.3147 10.455 24.2388 10.4243C24.163 10.3937 24.0818 10.3785 24 10.3799ZM14 12.3799C13.727 12.3799 13.4602 12.299 13.2333 12.1473C13.0063 11.9957 12.8295 11.7802 12.725 11.528C12.6206 11.2758 12.5932 10.9984 12.6465 10.7307C12.6997 10.463 12.8312 10.2171 13.0242 10.0241C13.2172 9.83109 13.4631 9.69965 13.7307 9.64641C13.9984 9.59316 14.2759 9.62049 14.5281 9.72494C14.7802 9.82938 14.9958 10.0063 15.1474 10.2332C15.299 10.4601 15.38 10.727 15.38 10.9999C15.38 11.3659 15.2346 11.7169 14.9758 11.9757C14.717 12.2345 14.366 12.3799 14 12.3799Z" fill="black"/>
</svg>
