<svg width="32" height="32" viewBox="0 0 32 32" fill="none" xmlns="http://www.w3.org/2000/svg">
<path d="M27.5555 8.33779H24.2578L23.7955 6.14223C23.769 6.01837 23.7006 5.90745 23.6018 5.82812C23.503 5.74879 23.38 5.7059 23.2533 5.70668H16.7466C16.62 5.7059 16.4969 5.74879 16.3981 5.82812C16.2994 5.90745 16.231 6.01837 16.2044 6.14223L15.7422 8.33779H7.29775C7.15159 8.33779 7.01141 8.39585 6.90806 8.4992C6.80471 8.60256 6.74664 8.74273 6.74664 8.8889V22.2222C6.76379 22.3575 6.82967 22.4818 6.93195 22.572C7.03423 22.6621 7.16587 22.7118 7.3022 22.7118C7.43853 22.7118 7.57017 22.6621 7.67245 22.572C7.77473 22.4818 7.84061 22.3575 7.85775 22.2222V9.44001H16.1866C16.3137 9.44249 16.4377 9.40023 16.5368 9.32062C16.6359 9.241 16.7039 9.1291 16.7289 9.00445L17.2 6.81779H22.8L23.2711 9.00445C23.2961 9.1291 23.3641 9.241 23.4632 9.32062C23.5623 9.40023 23.6862 9.44249 23.8133 9.44001H27.0044V25.2267H4.99553V8.8889C4.99553 8.74273 4.93747 8.60256 4.83412 8.4992C4.73076 8.39585 4.59059 8.33779 4.44442 8.33779C4.29826 8.33779 4.15808 8.39585 4.05473 8.4992C3.95137 8.60256 3.89331 8.74273 3.89331 8.8889V25.7778C3.89331 25.9239 3.95137 26.0641 4.05473 26.1675C4.15808 26.2708 4.29826 26.3289 4.44442 26.3289H27.5555C27.7017 26.3289 27.8419 26.2708 27.9452 26.1675C28.0486 26.0641 28.1066 25.9239 28.1066 25.7778V8.8889C28.1066 8.74273 28.0486 8.60256 27.9452 8.4992C27.8419 8.39585 27.7017 8.33779 27.5555 8.33779Z" fill="#151515"/>
</svg>
