<svg width="32" height="32" viewBox="0 0 32 32" fill="none" xmlns="http://www.w3.org/2000/svg">
<path d="M27.5556 15.4445H4.44447C4.13762 15.4445 3.88892 15.6936 3.88892 16V27.5556C3.88892 27.862 4.13762 28.1111 4.44447 28.1111H8.88892C9.19577 28.1111 9.44447 27.862 9.44447 27.5556C9.44447 23.941 12.3854 21 16 21C19.6146 21 22.5556 23.941 22.5556 27.5556C22.5556 27.862 22.8043 28.1111 23.1111 28.1111H27.5556C27.8624 28.1111 28.1111 27.862 28.1111 27.5556V16C28.1111 15.6936 27.8624 15.4445 27.5556 15.4445ZM27 27H23.6467C23.3611 23.0313 20.0408 19.8889 16 19.8889C11.9592 19.8889 8.63892 23.0313 8.35332 27H5.00003V16.5556H27V27Z" fill="black"/>
<path d="M5.33338 13.8889H14.2223C14.5291 13.8889 14.7778 13.6398 14.7778 13.3333V4.44445C14.7778 4.21962 14.6424 4.01736 14.4349 3.93099C14.2262 3.84592 13.9888 3.89279 13.8295 4.05165L4.94058 12.9401C4.78173 13.099 4.73399 13.3385 4.81993 13.546C4.9063 13.7535 5.10855 13.8889 5.33338 13.8889ZM13.6667 5.78559V12.7778H6.67452L13.6667 5.78559Z" fill="black"/>
<path d="M17.7777 13.8889H26.6666C26.9735 13.8889 27.2222 13.6398 27.2222 13.3334V4.44447C27.2222 4.13762 26.9735 3.88892 26.6666 3.88892H17.7777C17.4709 3.88892 17.2222 4.13762 17.2222 4.44447V13.3334C17.2222 13.6398 17.4709 13.8889 17.7777 13.8889ZM18.3333 5.00003H26.1111V12.7778H18.3333V5.00003Z" fill="black"/>
</svg>
