<svg width="32" height="32" viewBox="0 0 32 32" fill="none" xmlns="http://www.w3.org/2000/svg">
<g clip-path="url(#clip0_518_4116)">
<path d="M9.77778 3.88628H4.44444C4.13759 3.88628 3.88889 4.13498 3.88889 4.44184V9.77517C3.88889 10.0816 4.13759 10.3307 4.44444 10.3307H9.77778C10.0846 10.3307 10.3333 10.0816 10.3333 9.77517V4.44184C10.3333 4.13498 10.0846 3.88628 9.77778 3.88628ZM9.22222 9.21962H5V4.99739H9.22222V9.21962ZM22.2222 10.3307H27.5556C27.8624 10.3307 28.1111 10.0816 28.1111 9.77517V4.44184C28.1111 4.13498 27.8624 3.88628 27.5556 3.88628H22.2222C21.9154 3.88628 21.6667 4.13498 21.6667 4.44184V9.77517C21.6667 10.0816 21.9154 10.3307 22.2222 10.3307ZM22.7778 4.99739H27V9.21962H22.7778V4.99739ZM9.77778 21.6641H4.44444C4.13759 21.6641 3.88889 21.9132 3.88889 22.2196V27.5529C3.88889 27.8594 4.13759 28.1085 4.44444 28.1085H9.77778C10.0846 28.1085 10.3333 27.8594 10.3333 27.5529V22.2196C10.3333 21.9132 10.0846 21.6641 9.77778 21.6641ZM9.22222 26.9974H5V22.7752H9.22222V26.9974ZM27.5556 21.6641H22.2222C21.9154 21.6641 21.6667 21.9132 21.6667 22.2196V27.5529C21.6667 27.8594 21.9154 28.1085 22.2222 28.1085H27.5556C27.8624 28.1085 28.1111 27.8594 28.1111 27.5529V22.2196C28.1111 21.9132 27.8624 21.6641 27.5556 21.6641ZM27 26.9974H22.7778V22.7752H27V26.9974ZM20.0881 27.7674C20.1758 28.0616 20.0082 28.3707 19.7144 28.4583C18.5152 28.816 17.2656 28.9974 16 28.9974C14.7344 28.9974 13.4848 28.816 12.2856 28.4583C11.9918 28.3707 11.8242 28.0616 11.9119 27.7674C12 27.4731 12.3129 27.3047 12.6033 27.3941C14.7951 28.0469 17.2049 28.0469 19.3967 27.3941C19.6892 27.3038 20.0004 27.4722 20.0881 27.7674ZM29 15.9974C29 17.2604 28.819 18.5104 28.4618 19.7109C28.3902 19.9522 28.1688 20.1085 27.9297 20.1085C27.8772 20.1085 27.8238 20.1016 27.7708 20.0851C27.477 19.9983 27.3095 19.6884 27.3967 19.395C27.7235 18.2969 27.8889 17.1536 27.8889 15.9974C27.8889 14.8411 27.7235 13.6979 27.3967 12.5998C27.3095 12.3064 27.477 11.9965 27.7708 11.9097C28.0651 11.8203 28.3746 11.9896 28.4618 12.2838C28.819 13.4844 29 14.7344 29 15.9974ZM11.9119 4.22699C11.8242 3.93315 11.9918 3.6237 12.286 3.53602C14.6866 2.82162 17.3116 2.82118 19.714 3.53559C20.0078 3.62326 20.1754 3.93229 20.0881 4.22656C20.0009 4.52082 19.6927 4.68706 19.3971 4.60069C17.2005 3.94705 14.7978 3.94748 12.6029 4.60113C12.5499 4.61675 12.4965 4.62413 12.444 4.62413C12.2049 4.62413 11.9839 4.46832 11.9119 4.22699ZM4.07031 20.1085C3.83116 20.1085 3.6098 19.9523 3.5382 19.7109C3.18099 18.5104 3 17.2604 3 15.9974C3 14.7344 3.18099 13.4844 3.5382 12.2839C3.62587 11.9896 3.93577 11.8194 4.22916 11.9097C4.523 11.9965 4.69053 12.3064 4.6033 12.5998C4.27647 13.6979 4.11111 14.8411 4.11111 15.9974C4.11111 17.1537 4.27648 18.2969 4.6033 19.395C4.69053 19.6884 4.523 19.9983 4.22916 20.0851C4.17621 20.1016 4.12283 20.1085 4.07031 20.1085Z" fill="black"/>
</g>
<defs>
<clipPath id="clip0_518_4116">
<rect width="32" height="32" fill="white"/>
</clipPath>
</defs>
</svg>
